<svg xmlns="http://www.w3.org/2000/svg" xmlns:xlink="http://www.w3.org/1999/xlink" width="1200" zoomAndPan="magnify" viewBox="0 0 900 899.99999" height="1200" preserveAspectRatio="xMidYMid meet" version="1.0"><defs><clipPath id="99ef9ba999"><path d="M 192 192 L 708 192 L 708 708.476562 L 192 708.476562 Z M 192 192 " clip-rule="nonzero"/></clipPath></defs><g clip-path="url(#99ef9ba999)"><path fill="#ffffff" d="M 234.027344 268.210938 L 231.109375 271.128906 C 227.9375 274.304688 226.875 278.910156 228.339844 283.152344 C 229.804688 287.394531 233.484375 290.363281 237.941406 290.902344 L 277.644531 295.703125 C 278.285156 295.78125 278.921875 295.816406 279.558594 295.816406 C 283.695312 295.816406 287.644531 294.195312 290.617188 291.21875 C 294.050781 287.789062 295.683594 283.058594 295.101562 278.246094 L 290.300781 238.542969 C 289.761719 234.085938 286.792969 230.40625 282.550781 228.941406 C 278.3125 227.476562 273.703125 228.539062 270.527344 231.714844 L 267.609375 234.632812 L 229.558594 196.578125 C 224.703125 191.726562 216.804688 191.726562 211.949219 196.582031 L 195.976562 212.550781 C 191.125 217.40625 191.125 225.304688 195.976562 230.160156 Z M 220.753906 209.210938 L 262.25 250.707031 C 263.671875 252.128906 265.597656 252.929688 267.609375 252.929688 C 269.621094 252.929688 271.546875 252.128906 272.96875 250.707031 L 276.121094 247.554688 L 280.050781 280.066406 C 280.0625 280.140625 280.082031 280.320312 279.902344 280.503906 C 279.71875 280.683594 279.535156 280.664062 279.464844 280.65625 L 246.949219 276.726562 L 250.105469 273.570312 C 253.066406 270.609375 253.066406 265.8125 250.105469 262.855469 L 208.609375 221.355469 Z M 620.441406 295.816406 C 621.074219 295.816406 621.714844 295.78125 622.355469 295.703125 L 662.058594 290.902344 C 666.515625 290.363281 670.191406 287.394531 671.65625 283.152344 C 673.125 278.910156 672.0625 274.304688 668.886719 271.128906 L 665.96875 268.214844 L 704.023438 230.164062 C 708.875 225.308594 708.875 217.410156 704.023438 212.550781 L 688.050781 196.582031 C 683.195312 191.726562 675.296875 191.726562 670.441406 196.582031 L 632.390625 234.632812 L 629.472656 231.714844 C 626.292969 228.539062 621.6875 227.476562 617.449219 228.941406 C 613.207031 230.40625 610.238281 234.085938 609.699219 238.542969 L 604.898438 278.246094 C 604.316406 283.0625 605.953125 287.792969 609.382812 291.222656 C 612.355469 294.195312 616.304688 295.816406 620.441406 295.816406 Z M 619.945312 280.066406 L 623.878906 247.554688 L 627.03125 250.707031 C 628.449219 252.128906 630.378906 252.925781 632.390625 252.925781 C 634.398438 252.925781 636.324219 252.128906 637.75 250.707031 L 679.246094 209.210938 L 691.390625 221.355469 L 649.894531 262.855469 C 648.472656 264.273438 647.675781 266.203125 647.675781 268.210938 C 647.675781 270.222656 648.472656 272.148438 649.894531 273.570312 L 653.046875 276.726562 L 620.535156 280.65625 C 620.457031 280.664062 620.28125 280.683594 620.097656 280.503906 C 619.914062 280.320312 619.9375 280.140625 619.945312 280.066406 Z M 665.96875 632.992188 L 668.886719 630.074219 C 672.0625 626.898438 673.125 622.292969 671.660156 618.050781 C 670.195312 613.8125 666.515625 610.839844 662.058594 610.300781 L 622.351562 605.503906 C 617.539062 604.925781 612.8125 606.554688 609.378906 609.984375 C 605.949219 613.417969 604.316406 618.144531 604.898438 622.960938 L 609.699219 662.660156 C 610.234375 667.117188 613.203125 670.796875 617.445312 672.261719 C 621.6875 673.726562 626.296875 672.667969 629.472656 669.492188 L 632.386719 666.574219 L 670.4375 704.625 C 672.867188 707.050781 676.054688 708.265625 679.242188 708.265625 C 682.429688 708.265625 685.621094 707.050781 688.050781 704.625 L 704.023438 688.652344 C 708.875 683.796875 708.875 675.898438 704.019531 671.042969 Z M 679.246094 691.992188 L 637.75 650.496094 C 636.328125 649.074219 634.398438 648.277344 632.390625 648.277344 C 630.378906 648.277344 628.453125 649.074219 627.03125 650.496094 L 623.878906 653.648438 L 619.945312 621.140625 C 619.9375 621.0625 619.917969 620.882812 620.097656 620.703125 C 620.28125 620.519531 620.460938 620.539062 620.535156 620.550781 L 653.046875 624.480469 L 649.894531 627.632812 C 648.472656 629.054688 647.675781 630.980469 647.675781 632.992188 C 647.675781 635.003906 648.472656 636.929688 649.894531 638.351562 L 691.390625 679.847656 Z M 587.5 272.648438 L 399.472656 272.648438 C 397.460938 272.648438 395.535156 273.445312 394.113281 274.867188 L 369.230469 299.75 L 312.496094 299.75 C 308.3125 299.75 304.917969 303.144531 304.917969 307.328125 L 304.917969 620.980469 C 304.917969 625.164062 308.3125 628.558594 312.496094 628.558594 L 560.398438 628.558594 C 564.582031 628.558594 567.976562 625.164062 567.976562 620.980469 L 567.976562 601.453125 L 587.5 601.453125 C 591.683594 601.453125 595.078125 598.0625 595.078125 593.875 L 595.078125 280.226562 C 595.078125 276.039062 591.683594 272.648438 587.5 272.648438 Z M 556.558594 358.71875 C 560.746094 358.71875 564.136719 362.113281 564.136719 366.296875 C 564.136719 370.484375 560.746094 373.875 556.558594 373.875 L 370.539062 373.875 C 366.351562 373.875 362.960938 370.484375 362.960938 366.296875 C 362.960938 362.113281 366.351562 358.71875 370.539062 358.71875 Z M 423.941406 337.996094 C 423.941406 333.8125 427.332031 330.417969 431.519531 330.417969 L 556.558594 330.417969 C 560.746094 330.417969 564.136719 333.8125 564.136719 337.996094 C 564.136719 342.179688 560.746094 345.574219 556.558594 345.574219 L 431.519531 345.574219 C 427.332031 345.574219 423.941406 342.179688 423.941406 337.996094 Z M 556.558594 543.683594 L 370.539062 543.683594 C 366.351562 543.683594 362.960938 540.292969 362.960938 536.105469 C 362.960938 531.917969 366.351562 528.527344 370.539062 528.527344 L 556.558594 528.527344 C 560.746094 528.527344 564.136719 531.917969 564.136719 536.105469 C 564.136719 540.292969 560.746094 543.683594 556.558594 543.683594 Z M 564.136719 564.410156 C 564.136719 568.59375 560.746094 571.988281 556.558594 571.988281 L 370.539062 571.988281 C 366.351562 571.988281 362.960938 568.59375 362.960938 564.410156 C 362.960938 560.222656 366.351562 556.832031 370.539062 556.832031 L 556.558594 556.832031 C 560.746094 556.832031 564.136719 560.222656 564.136719 564.410156 Z M 556.558594 515.382812 L 370.539062 515.382812 C 366.351562 515.382812 362.960938 511.992188 362.960938 507.804688 C 362.960938 503.621094 366.351562 500.226562 370.539062 500.226562 L 556.558594 500.226562 C 560.746094 500.226562 564.136719 503.621094 564.136719 507.804688 C 564.136719 511.992188 560.746094 515.382812 556.558594 515.382812 Z M 556.558594 487.082031 L 370.539062 487.082031 C 366.351562 487.082031 362.960938 483.6875 362.960938 479.503906 C 362.960938 475.316406 366.351562 471.925781 370.539062 471.925781 L 556.558594 471.925781 C 560.746094 471.925781 564.136719 475.316406 564.136719 479.503906 C 564.136719 483.6875 560.746094 487.082031 556.558594 487.082031 Z M 556.558594 458.78125 L 370.539062 458.78125 C 366.351562 458.78125 362.960938 455.386719 362.960938 451.203125 C 362.960938 447.015625 366.351562 443.625 370.539062 443.625 L 556.558594 443.625 C 560.746094 443.625 564.136719 447.015625 564.136719 451.203125 C 564.136719 455.386719 560.746094 458.78125 556.558594 458.78125 Z M 556.558594 430.480469 L 370.539062 430.480469 C 366.351562 430.480469 362.960938 427.085938 362.960938 422.902344 C 362.960938 418.714844 366.351562 415.324219 370.539062 415.324219 L 556.558594 415.324219 C 560.746094 415.324219 564.136719 418.714844 564.136719 422.902344 C 564.136719 427.085938 560.746094 430.480469 556.558594 430.480469 Z M 556.558594 402.175781 L 370.539062 402.175781 C 366.351562 402.175781 362.960938 398.785156 362.960938 394.597656 C 362.960938 390.414062 366.351562 387.019531 370.539062 387.019531 L 556.558594 387.019531 C 560.746094 387.019531 564.136719 390.414062 564.136719 394.597656 C 564.136719 398.785156 560.746094 402.175781 556.558594 402.175781 Z M 556.558594 317.273438 L 431.519531 317.273438 C 427.332031 317.273438 423.941406 313.882812 423.941406 309.695312 C 423.941406 305.511719 427.332031 302.117188 431.519531 302.117188 L 556.558594 302.117188 C 560.746094 302.117188 564.136719 305.511719 564.136719 309.695312 C 564.136719 313.882812 560.746094 317.273438 556.558594 317.273438 Z M 391.890625 298.523438 L 391.890625 332.519531 L 357.894531 332.519531 Z M 552.820312 613.402344 L 320.074219 613.402344 L 320.074219 314.90625 L 354.074219 314.90625 L 334.242188 334.738281 C 332.820312 336.160156 332.023438 338.085938 332.023438 340.097656 L 332.023438 593.875 C 332.023438 598.0625 335.414062 601.453125 339.601562 601.453125 L 552.820312 601.453125 Z M 277.644531 605.503906 L 237.941406 610.300781 C 233.484375 610.839844 229.800781 613.8125 228.335938 618.050781 C 226.871094 622.292969 227.9375 626.902344 231.113281 630.074219 L 234.027344 632.992188 L 195.976562 671.042969 C 191.125 675.898438 191.125 683.796875 195.976562 688.65625 L 211.949219 704.625 C 214.375 707.050781 217.566406 708.265625 220.753906 708.265625 C 223.941406 708.265625 227.128906 707.050781 229.558594 704.625 L 267.609375 666.574219 L 270.527344 669.492188 C 273.703125 672.667969 278.3125 673.730469 282.550781 672.265625 C 286.792969 670.800781 289.761719 667.121094 290.300781 662.660156 L 295.101562 622.957031 C 295.679688 618.144531 294.046875 613.414062 290.617188 609.984375 C 287.1875 606.554688 282.464844 604.921875 277.644531 605.503906 Z M 280.050781 621.140625 L 276.121094 653.652344 L 272.96875 650.496094 C 270.007812 647.539062 265.210938 647.539062 262.25 650.496094 L 220.753906 691.996094 L 208.609375 679.847656 L 250.105469 638.351562 C 251.527344 636.929688 252.324219 635.003906 252.324219 632.992188 C 252.324219 630.980469 251.527344 629.054688 250.105469 627.632812 L 246.953125 624.480469 L 279.464844 620.546875 C 279.539062 620.542969 279.71875 620.519531 279.902344 620.699219 C 280.082031 620.886719 280.0625 621.0625 280.050781 621.140625 Z M 280.050781 621.140625 " fill-opacity="1" fill-rule="nonzero"/></g></svg>