<svg xmlns="http://www.w3.org/2000/svg" xmlns:xlink="http://www.w3.org/1999/xlink" width="1200" zoomAndPan="magnify" viewBox="0 0 900 899.99999" height="1200" preserveAspectRatio="xMidYMid meet" version="1.0"><path fill="#ffffff" d="M 606.484375 224.632812 C 502.15625 217.257812 397.832031 217.257812 293.507812 224.632812 C 291.300781 224.800781 289.105469 225.0625 286.925781 225.421875 C 284.742188 225.785156 282.582031 226.242188 280.4375 226.792969 C 278.296875 227.347656 276.183594 227.992188 274.101562 228.734375 C 272.015625 229.472656 269.96875 230.304688 267.957031 231.226562 C 265.949219 232.152344 263.980469 233.160156 262.0625 234.257812 C 260.140625 235.355469 258.273438 236.535156 256.457031 237.796875 C 254.640625 239.0625 252.882812 240.402344 251.1875 241.820312 C 249.492188 243.242188 247.859375 244.734375 246.296875 246.296875 C 244.734375 247.859375 243.242188 249.492188 241.820312 251.1875 C 240.402344 252.882812 239.0625 254.640625 237.796875 256.457031 C 236.535156 258.273438 235.355469 260.140625 234.257812 262.0625 C 233.160156 263.980469 232.152344 265.949219 231.226562 267.957031 C 230.304688 269.96875 229.472656 272.015625 228.734375 274.101562 C 227.992188 276.183594 227.347656 278.296875 226.792969 280.4375 C 226.242188 282.582031 225.785156 284.742188 225.421875 286.925781 C 225.0625 289.105469 224.800781 291.300781 224.632812 293.507812 C 217.25 397.832031 217.25 502.15625 224.632812 606.484375 C 224.800781 608.6875 225.0625 610.882812 225.421875 613.066406 C 225.785156 615.246094 226.242188 617.410156 226.792969 619.550781 C 227.347656 621.691406 227.992188 623.804688 228.734375 625.890625 C 229.472656 627.972656 230.304688 630.023438 231.226562 632.03125 C 232.152344 634.042969 233.160156 636.007812 234.257812 637.929688 C 235.355469 639.847656 236.535156 641.71875 237.796875 643.535156 C 239.0625 645.347656 240.402344 647.105469 241.820312 648.800781 C 243.242188 650.5 244.734375 652.128906 246.296875 653.691406 C 247.859375 655.257812 249.492188 656.75 251.1875 658.167969 C 252.882812 659.585938 254.640625 660.929688 256.457031 662.191406 C 258.273438 663.453125 260.140625 664.636719 262.0625 665.730469 C 263.980469 666.828125 265.949219 667.839844 267.957031 668.761719 C 269.96875 669.683594 272.015625 670.515625 274.101562 671.257812 C 276.183594 671.996094 278.296875 672.644531 280.4375 673.195312 C 282.582031 673.75 284.742188 674.207031 286.925781 674.566406 C 289.105469 674.925781 291.300781 675.191406 293.507812 675.355469 C 397.832031 682.75 502.15625 682.75 606.484375 675.355469 C 608.6875 675.191406 610.882812 674.925781 613.066406 674.566406 C 615.246094 674.207031 617.410156 673.75 619.550781 673.195312 C 621.691406 672.644531 623.804688 671.996094 625.890625 671.257812 C 627.972656 670.515625 630.023438 669.683594 632.03125 668.761719 C 634.042969 667.839844 636.007812 666.828125 637.929688 665.730469 C 639.847656 664.636719 641.71875 663.453125 643.535156 662.191406 C 645.347656 660.929688 647.105469 659.585938 648.800781 658.167969 C 650.5 656.75 652.128906 655.257812 653.691406 653.691406 C 655.257812 652.128906 656.75 650.5 658.167969 648.800781 C 659.585938 647.105469 660.929688 645.347656 662.191406 643.535156 C 663.453125 641.71875 664.636719 639.847656 665.730469 637.929688 C 666.828125 636.007812 667.839844 634.042969 668.761719 632.03125 C 669.683594 630.023438 670.515625 627.972656 671.257812 625.890625 C 671.996094 623.804688 672.644531 621.691406 673.195312 619.550781 C 673.75 617.410156 674.207031 615.246094 674.566406 613.066406 C 674.925781 610.882812 675.191406 608.6875 675.355469 606.484375 C 682.738281 502.15625 682.738281 397.832031 675.355469 293.507812 C 675.191406 291.300781 674.925781 289.105469 674.566406 286.925781 C 674.207031 284.742188 673.75 282.582031 673.195312 280.4375 C 672.644531 278.296875 671.996094 276.183594 671.257812 274.101562 C 670.515625 272.015625 669.683594 269.96875 668.761719 267.957031 C 667.839844 265.949219 666.828125 263.980469 665.730469 262.0625 C 664.632812 260.140625 663.453125 258.273438 662.191406 256.457031 C 660.929688 254.640625 659.585938 252.882812 658.167969 251.1875 C 656.75 249.492188 655.257812 247.859375 653.691406 246.296875 C 652.128906 244.734375 650.5 243.242188 648.800781 241.820312 C 647.105469 240.402344 645.347656 239.0625 643.535156 237.796875 C 641.71875 236.535156 639.847656 235.355469 637.929688 234.257812 C 636.007812 233.160156 634.042969 232.152344 632.03125 231.226562 C 630.023438 230.304688 627.972656 229.472656 625.890625 228.734375 C 623.804688 227.992188 621.691406 227.347656 619.550781 226.792969 C 617.410156 226.242188 615.246094 225.785156 613.066406 225.421875 C 610.882812 225.0625 608.6875 224.800781 606.484375 224.632812 Z M 645.9375 604.394531 C 645.851562 605.730469 645.707031 607.058594 645.5 608.378906 C 645.296875 609.703125 645.03125 611.011719 644.707031 612.308594 C 644.382812 613.609375 644 614.890625 643.5625 616.152344 C 643.121094 617.417969 642.628906 618.65625 642.074219 619.875 C 641.523438 621.09375 640.917969 622.289062 640.261719 623.453125 C 639.601562 624.617188 638.890625 625.746094 638.128906 626.847656 C 637.371094 627.949219 636.5625 629.011719 635.703125 630.039062 C 634.847656 631.066406 633.945312 632.054688 633 633 C 632.054688 633.945312 631.066406 634.847656 630.039062 635.703125 C 629.011719 636.5625 627.949219 637.371094 626.847656 638.128906 C 625.75 638.890625 624.617188 639.601562 623.453125 640.261719 C 622.289062 640.917969 621.09375 641.523438 619.875 642.074219 C 618.65625 642.628906 617.417969 643.121094 616.152344 643.5625 C 614.890625 644 613.609375 644.382812 612.308594 644.707031 C 611.011719 645.03125 609.703125 645.296875 608.378906 645.5 C 607.058594 645.707031 605.730469 645.851562 604.394531 645.9375 C 501.460938 653.234375 398.527344 653.234375 295.59375 645.9375 C 294.257812 645.851562 292.929688 645.707031 291.609375 645.5 C 290.289062 645.296875 288.976562 645.03125 287.679688 644.707031 C 286.382812 644.382812 285.101562 644 283.835938 643.5625 C 282.574219 643.121094 281.332031 642.628906 280.113281 642.074219 C 278.894531 641.523438 277.703125 640.917969 276.539062 640.261719 C 275.375 639.601562 274.242188 638.890625 273.140625 638.128906 C 272.042969 637.371094 270.976562 636.5625 269.949219 635.703125 C 268.921875 634.847656 267.9375 633.945312 266.992188 633 C 266.042969 632.054688 265.144531 631.066406 264.285156 630.039062 C 263.429688 629.011719 262.621094 627.949219 261.859375 626.847656 C 261.097656 625.746094 260.386719 624.617188 259.730469 623.453125 C 259.070312 622.285156 258.464844 621.09375 257.914062 619.875 C 257.363281 618.65625 256.867188 617.417969 256.429688 616.152344 C 255.988281 614.890625 255.605469 613.609375 255.28125 612.308594 C 254.960938 611.011719 254.695312 609.703125 254.488281 608.378906 C 254.28125 607.058594 254.136719 605.730469 254.050781 604.394531 C 246.765625 501.460938 246.765625 398.527344 254.050781 295.59375 C 254.136719 294.257812 254.28125 292.929688 254.488281 291.609375 C 254.695312 290.289062 254.960938 288.976562 255.28125 287.679688 C 255.605469 286.382812 255.988281 285.101562 256.429688 283.835938 C 256.867188 282.574219 257.363281 281.332031 257.914062 280.113281 C 258.464844 278.894531 259.070312 277.703125 259.730469 276.539062 C 260.386719 275.375 261.097656 274.242188 261.859375 273.140625 C 262.621094 272.042969 263.429688 270.976562 264.285156 269.949219 C 265.144531 268.921875 266.042969 267.9375 266.992188 266.992188 C 267.9375 266.042969 268.921875 265.144531 269.949219 264.285156 C 270.976562 263.429688 272.042969 262.621094 273.140625 261.859375 C 274.242188 261.097656 275.375 260.386719 276.539062 259.730469 C 277.703125 259.070312 278.894531 258.464844 280.113281 257.914062 C 281.332031 257.363281 282.574219 256.867188 283.835938 256.429688 C 285.101562 255.988281 286.382812 255.605469 287.679688 255.28125 C 288.976562 254.960938 290.289062 254.695312 291.609375 254.488281 C 292.929688 254.28125 294.257812 254.136719 295.59375 254.050781 C 398.527344 246.757812 501.460938 246.757812 604.394531 254.050781 C 605.730469 254.136719 607.058594 254.28125 608.378906 254.488281 C 609.703125 254.695312 611.011719 254.960938 612.308594 255.28125 C 613.609375 255.605469 614.890625 255.988281 616.152344 256.429688 C 617.417969 256.867188 618.65625 257.363281 619.875 257.914062 C 621.09375 258.464844 622.289062 259.070312 623.453125 259.730469 C 624.617188 260.386719 625.75 261.097656 626.847656 261.859375 C 627.949219 262.621094 629.011719 263.429688 630.039062 264.285156 C 631.066406 265.144531 632.054688 266.042969 633 266.992188 C 633.945312 267.9375 634.847656 268.921875 635.703125 269.949219 C 636.5625 270.976562 637.371094 272.042969 638.128906 273.140625 C 638.890625 274.242188 639.601562 275.375 640.261719 276.539062 C 640.917969 277.703125 641.523438 278.894531 642.074219 280.113281 C 642.628906 281.332031 643.121094 282.574219 643.5625 283.835938 C 644 285.101562 644.382812 286.382812 644.707031 287.679688 C 645.03125 288.976562 645.296875 290.289062 645.5 291.609375 C 645.707031 292.929688 645.851562 294.257812 645.9375 295.59375 C 653.226562 398.527344 653.226562 501.460938 645.9375 604.394531 Z M 645.9375 604.394531 " fill-opacity="1" fill-rule="nonzero"/><path fill="#ffffff" d="M 593.125 327.710938 C 593.832031 327.03125 594.460938 326.289062 595.015625 325.484375 C 595.574219 324.679688 596.046875 323.824219 596.429688 322.925781 C 596.816406 322.027344 597.113281 321.097656 597.3125 320.140625 C 597.515625 319.183594 597.621094 318.214844 597.628906 317.234375 C 597.636719 316.257812 597.546875 315.285156 597.363281 314.324219 C 597.179688 313.363281 596.902344 312.429688 596.53125 311.523438 C 596.160156 310.617188 595.703125 309.757812 595.160156 308.941406 C 594.621094 308.125 594.003906 307.371094 593.308594 306.679688 C 592.617188 305.988281 591.863281 305.371094 591.046875 304.828125 C 590.234375 304.285156 589.371094 303.832031 588.464844 303.460938 C 587.5625 303.089844 586.628906 302.8125 585.664062 302.625 C 584.703125 302.441406 583.734375 302.351562 582.753906 302.363281 C 581.777344 302.371094 580.808594 302.476562 579.851562 302.675781 C 578.890625 302.878906 577.960938 303.171875 577.0625 303.558594 C 576.164062 303.945312 575.3125 304.417969 574.503906 304.972656 C 573.699219 305.527344 572.957031 306.160156 572.277344 306.863281 L 553.710938 325.429688 C 551.789062 323.828125 549.835938 322.269531 547.84375 320.757812 C 545.851562 319.246094 543.824219 317.78125 541.765625 316.363281 C 539.707031 314.945312 537.613281 313.578125 535.492188 312.257812 C 533.367188 310.9375 531.214844 309.664062 529.035156 308.441406 C 526.851562 307.222656 524.640625 306.050781 522.40625 304.933594 C 520.171875 303.8125 517.910156 302.746094 515.625 301.730469 C 513.339844 300.71875 511.03125 299.757812 508.703125 298.847656 C 506.371094 297.941406 504.023438 297.089844 501.652344 296.289062 C 499.28125 295.492188 496.894531 294.746094 494.492188 294.058594 C 492.089844 293.371094 489.671875 292.738281 487.238281 292.160156 C 484.804688 291.585938 482.359375 291.066406 479.902344 290.601562 C 477.445312 290.136719 474.976562 289.730469 472.503906 289.382812 C 470.027344 289.035156 467.542969 288.742188 465.054688 288.507812 C 462.566406 288.273438 460.070312 288.097656 457.574219 287.976562 C 455.074219 287.859375 452.578125 287.796875 450.078125 287.792969 C 447.574219 287.792969 445.078125 287.847656 442.578125 287.957031 C 440.082031 288.070312 437.585938 288.242188 435.097656 288.46875 C 432.605469 288.695312 430.125 288.984375 427.648438 289.324219 C 425.167969 289.667969 422.703125 290.066406 420.242188 290.523438 C 417.785156 290.980469 415.339844 291.496094 412.90625 292.066406 C 410.46875 292.636719 408.050781 293.261719 405.644531 293.945312 C 403.238281 294.628906 400.851562 295.363281 398.480469 296.15625 C 396.109375 296.949219 393.753906 297.796875 391.421875 298.699219 C 389.089844 299.601562 386.78125 300.554688 384.492188 301.566406 C 382.207031 302.574219 379.941406 303.632812 377.703125 304.75 C 375.464844 305.863281 373.25 307.027344 371.066406 308.242188 C 368.882812 309.457031 366.726562 310.722656 364.601562 312.039062 C 362.472656 313.355469 360.378906 314.71875 358.316406 316.128906 C 356.253906 317.542969 354.222656 319.003906 352.226562 320.507812 C 350.230469 322.015625 348.269531 323.566406 346.347656 325.164062 C 344.421875 326.761719 342.539062 328.402344 340.6875 330.085938 C 338.839844 331.769531 337.035156 333.496094 335.265625 335.265625 C 333.496094 337.035156 331.769531 338.839844 330.085938 340.6875 C 328.402344 342.539062 326.761719 344.421875 325.164062 346.347656 C 323.566406 348.269531 322.015625 350.230469 320.507812 352.226562 C 319.003906 354.222656 317.542969 356.253906 316.128906 358.316406 C 314.71875 360.378906 313.355469 362.472656 312.039062 364.601562 C 310.722656 366.726562 309.457031 368.882812 308.242188 371.066406 C 307.027344 373.253906 305.863281 375.464844 304.75 377.703125 C 303.632812 379.941406 302.574219 382.207031 301.566406 384.492188 C 300.554688 386.78125 299.601562 389.089844 298.699219 391.421875 C 297.796875 393.753906 296.949219 396.109375 296.15625 398.480469 C 295.363281 400.851562 294.628906 403.238281 293.945312 405.644531 C 293.261719 408.050781 292.636719 410.46875 292.066406 412.90625 C 291.496094 415.339844 290.980469 417.785156 290.523438 420.242188 C 290.066406 422.703125 289.667969 425.167969 289.324219 427.648438 C 288.984375 430.125 288.695312 432.605469 288.46875 435.097656 C 288.242188 437.585938 288.070312 440.082031 287.957031 442.578125 C 287.847656 445.078125 287.792969 447.574219 287.792969 450.078125 C 287.796875 452.578125 287.859375 455.074219 287.976562 457.574219 C 288.097656 460.070312 288.273438 462.566406 288.507812 465.054688 C 288.742188 467.542969 289.035156 470.027344 289.382812 472.503906 C 289.730469 474.976562 290.136719 477.445312 290.601562 479.902344 C 291.066406 482.359375 291.585938 484.804688 292.160156 487.238281 C 292.738281 489.671875 293.371094 492.089844 294.058594 494.492188 C 294.746094 496.894531 295.492188 499.28125 296.289062 501.652344 C 297.089844 504.023438 297.941406 506.371094 298.847656 508.703125 C 299.757812 511.03125 300.71875 513.339844 301.730469 515.625 C 302.746094 517.910156 303.8125 520.171875 304.933594 522.40625 C 306.050781 524.640625 307.222656 526.851562 308.441406 529.035156 C 309.664062 531.214844 310.9375 533.367188 312.257812 535.492188 C 313.578125 537.613281 314.945312 539.707031 316.363281 541.765625 C 317.78125 543.824219 319.246094 545.851562 320.757812 547.84375 C 322.269531 549.835938 323.828125 551.789062 325.429688 553.710938 L 306.863281 572.277344 C 306.179688 572.960938 305.566406 573.707031 305.027344 574.511719 C 304.492188 575.316406 304.035156 576.164062 303.664062 577.058594 C 303.292969 577.953125 303.015625 578.875 302.824219 579.824219 C 302.636719 580.773438 302.542969 581.734375 302.542969 582.703125 C 302.542969 583.671875 302.636719 584.628906 302.824219 585.578125 C 303.015625 586.527344 303.292969 587.449219 303.664062 588.34375 C 304.035156 589.238281 304.492188 590.089844 305.027344 590.894531 C 305.566406 591.699219 306.179688 592.441406 306.863281 593.125 C 307.550781 593.800781 308.300781 594.40625 309.105469 594.9375 C 309.914062 595.464844 310.765625 595.914062 311.65625 596.277344 C 312.550781 596.644531 313.472656 596.917969 314.417969 597.105469 C 315.367188 597.292969 316.324219 597.382812 317.289062 597.382812 C 318.253906 597.382812 319.210938 597.292969 320.15625 597.105469 C 321.105469 596.917969 322.023438 596.644531 322.917969 596.277344 C 323.8125 595.914062 324.660156 595.464844 325.46875 594.9375 C 326.273438 594.40625 327.023438 593.800781 327.710938 593.125 L 346.28125 574.5625 C 348.199219 576.164062 350.15625 577.71875 352.148438 579.230469 C 354.140625 580.742188 356.164062 582.207031 358.226562 583.625 C 360.285156 585.042969 362.375 586.414062 364.5 587.734375 C 366.621094 589.054688 368.773438 590.324219 370.957031 591.546875 C 373.136719 592.769531 375.347656 593.9375 377.582031 595.058594 C 379.820312 596.175781 382.082031 597.242188 384.367188 598.257812 C 386.652344 599.273438 388.957031 600.234375 391.289062 601.140625 C 393.617188 602.046875 395.96875 602.902344 398.335938 603.699219 C 400.707031 604.5 403.09375 605.242188 405.496094 605.929688 C 407.902344 606.621094 410.320312 607.253906 412.753906 607.828125 C 415.1875 608.40625 417.628906 608.925781 420.089844 609.386719 C 422.546875 609.851562 425.011719 610.257812 427.488281 610.605469 C 429.964844 610.957031 432.445312 611.25 434.9375 611.480469 C 437.425781 611.714844 439.917969 611.894531 442.417969 612.011719 C 444.914062 612.132812 447.414062 612.191406 449.914062 612.195312 C 452.414062 612.199219 454.914062 612.144531 457.410156 612.03125 C 459.910156 611.917969 462.402344 611.75 464.894531 611.519531 C 467.382812 611.292969 469.867188 611.007812 472.34375 610.664062 C 474.820312 610.320312 477.289062 609.921875 479.746094 609.464844 C 482.203125 609.007812 484.652344 608.492188 487.085938 607.921875 C 489.519531 607.351562 491.941406 606.726562 494.34375 606.042969 C 496.75 605.363281 499.140625 604.625 501.511719 603.832031 C 503.882812 603.039062 506.234375 602.191406 508.566406 601.289062 C 510.898438 600.386719 513.207031 599.433594 515.496094 598.425781 C 517.785156 597.417969 520.046875 596.355469 522.285156 595.242188 C 524.527344 594.128906 526.738281 592.964844 528.921875 591.75 C 531.109375 590.53125 533.261719 589.265625 535.390625 587.953125 C 537.515625 586.636719 539.609375 585.273438 541.675781 583.859375 C 543.738281 582.445312 545.765625 580.988281 547.761719 579.480469 C 549.757812 577.972656 551.71875 576.421875 553.644531 574.824219 C 555.566406 573.226562 557.453125 571.585938 559.300781 569.902344 C 561.148438 568.21875 562.957031 566.492188 564.722656 564.722656 C 566.492188 562.957031 568.21875 561.148438 569.902344 559.300781 C 571.585938 557.453125 573.226562 555.566406 574.824219 553.644531 C 576.421875 551.71875 577.972656 549.757812 579.480469 547.761719 C 580.988281 545.765625 582.445312 543.738281 583.859375 541.675781 C 585.273438 539.609375 586.636719 537.515625 587.953125 535.390625 C 589.265625 533.261719 590.53125 531.109375 591.75 528.921875 C 592.964844 526.738281 594.128906 524.527344 595.242188 522.285156 C 596.355469 520.046875 597.417969 517.785156 598.425781 515.496094 C 599.433594 513.207031 600.386719 510.898438 601.289062 508.566406 C 602.191406 506.234375 603.039062 503.882812 603.832031 501.511719 C 604.625 499.140625 605.363281 496.75 606.042969 494.34375 C 606.726562 491.941406 607.351562 489.519531 607.921875 487.085938 C 608.492188 484.652344 609.007812 482.203125 609.464844 479.746094 C 609.921875 477.289062 610.320312 474.820312 610.664062 472.34375 C 611.007812 469.867188 611.292969 467.382812 611.519531 464.894531 C 611.75 462.402344 611.917969 459.910156 612.03125 457.410156 C 612.144531 454.914062 612.199219 452.414062 612.195312 449.914062 C 612.191406 447.414062 612.132812 444.914062 612.011719 442.417969 C 611.894531 439.917969 611.714844 437.425781 611.484375 434.9375 C 611.25 432.445312 610.957031 429.964844 610.605469 427.488281 C 610.257812 425.011719 609.851562 422.546875 609.386719 420.089844 C 608.925781 417.628906 608.40625 415.1875 607.828125 412.753906 C 607.253906 410.320312 606.621094 407.902344 605.929688 405.496094 C 605.242188 403.09375 604.5 400.707031 603.699219 398.335938 C 602.902344 395.96875 602.046875 393.617188 601.140625 391.289062 C 600.234375 388.957031 599.273438 386.652344 598.257812 384.367188 C 597.242188 382.082031 596.175781 379.820312 595.058594 377.582031 C 593.9375 375.347656 592.769531 373.136719 591.546875 370.957031 C 590.324219 368.773438 589.054688 366.621094 587.734375 364.5 C 586.414062 362.375 585.042969 360.285156 583.625 358.226562 C 582.207031 356.164062 580.742188 354.140625 579.230469 352.148438 C 577.71875 350.15625 576.164062 348.199219 574.5625 346.28125 Z M 582.703125 449.996094 C 582.707031 453.097656 582.601562 456.199219 582.386719 459.296875 C 582.171875 462.394531 581.851562 465.480469 581.417969 468.554688 C 580.988281 471.628906 580.449219 474.6875 579.804688 477.722656 C 579.15625 480.757812 578.40625 483.769531 577.550781 486.753906 C 576.691406 489.738281 575.730469 492.6875 574.667969 495.605469 C 573.601562 498.519531 572.4375 501.394531 571.167969 504.230469 C 569.902344 507.066406 568.539062 509.851562 567.078125 512.589844 C 565.613281 515.328125 564.058594 518.011719 562.40625 520.640625 C 560.753906 523.269531 559.015625 525.839844 557.183594 528.347656 C 555.351562 530.851562 553.433594 533.292969 551.429688 535.664062 C 549.429688 538.035156 547.34375 540.335938 545.179688 542.5625 C 543.015625 544.789062 540.777344 546.933594 538.460938 549.003906 C 536.144531 551.070312 533.761719 553.054688 531.304688 554.957031 C 528.851562 556.855469 526.332031 558.667969 523.75 560.394531 C 521.167969 562.117188 518.527344 563.75 515.832031 565.285156 C 513.136719 566.824219 510.386719 568.265625 507.589844 569.613281 C 504.792969 570.957031 501.949219 572.203125 499.066406 573.347656 C 496.179688 574.492188 493.257812 575.535156 490.296875 576.476562 C 487.339844 577.417969 484.351562 578.253906 481.332031 578.984375 C 478.316406 579.714844 475.277344 580.335938 472.214844 580.855469 C 469.152344 581.371094 466.078125 581.777344 462.988281 582.078125 C 459.898438 582.378906 456.800781 582.570312 453.699219 582.65625 C 450.59375 582.738281 447.492188 582.710938 444.390625 582.578125 C 441.289062 582.441406 438.195312 582.199219 435.109375 581.847656 C 432.027344 581.492188 428.957031 581.035156 425.90625 580.464844 C 422.851562 579.898438 419.824219 579.222656 416.820312 578.441406 C 413.816406 577.660156 410.839844 576.777344 407.898438 575.785156 C 404.957031 574.796875 402.050781 573.707031 399.1875 572.511719 C 396.320312 571.316406 393.5 570.023438 390.722656 568.632812 C 387.949219 567.242188 385.226562 565.753906 382.554688 564.167969 C 379.886719 562.585938 377.273438 560.910156 374.722656 559.144531 C 372.167969 557.378906 369.679688 555.523438 367.257812 553.582031 L 406.175781 514.664062 L 405.757812 538.207031 C 405.742188 539.175781 405.820312 540.136719 405.992188 541.085938 C 406.167969 542.039062 406.429688 542.964844 406.785156 543.867188 C 407.140625 544.765625 407.578125 545.625 408.101562 546.4375 C 408.628906 547.253906 409.226562 548.007812 409.898438 548.703125 C 410.570312 549.398438 411.304688 550.023438 412.097656 550.574219 C 412.894531 551.128906 413.738281 551.597656 414.625 551.980469 C 415.511719 552.367188 416.429688 552.664062 417.375 552.867188 C 418.320312 553.074219 419.277344 553.1875 420.246094 553.203125 C 421.214844 553.21875 422.171875 553.140625 423.125 552.96875 C 424.078125 552.796875 425.003906 552.535156 425.90625 552.179688 C 426.804688 551.824219 427.664062 551.386719 428.476562 550.863281 C 429.292969 550.339844 430.046875 549.742188 430.746094 549.070312 C 431.441406 548.398438 432.066406 547.664062 432.617188 546.871094 C 433.167969 546.074219 433.640625 545.234375 434.027344 544.347656 C 434.410156 543.457031 434.707031 542.542969 434.914062 541.597656 C 435.121094 540.652344 435.230469 539.695312 435.25 538.726562 C 435.25 538.726562 436.300781 478.695312 436.28125 478.566406 C 436.285156 476.628906 435.929688 474.761719 435.214844 472.960938 C 434.5 471.160156 433.480469 469.558594 432.152344 468.148438 C 430.699219 466.734375 429.03125 465.640625 427.15625 464.871094 C 425.277344 464.101562 423.324219 463.707031 421.296875 463.691406 L 361.265625 464.738281 C 360.296875 464.757812 359.339844 464.867188 358.390625 465.074219 C 357.445312 465.277344 356.527344 465.574219 355.640625 465.960938 C 354.753906 466.347656 353.910156 466.816406 353.117188 467.367188 C 352.320312 467.921875 351.585938 468.546875 350.914062 469.242188 C 350.242188 469.9375 349.640625 470.695312 349.117188 471.507812 C 348.59375 472.324219 348.15625 473.179688 347.800781 474.082031 C 347.445312 474.984375 347.183594 475.910156 347.011719 476.863281 C 346.839844 477.816406 346.761719 478.777344 346.777344 479.746094 C 346.816406 480.707031 346.945312 481.65625 347.167969 482.59375 C 347.386719 483.527344 347.695312 484.4375 348.089844 485.3125 C 348.484375 486.191406 348.957031 487.023438 349.511719 487.8125 C 350.0625 488.597656 350.6875 489.328125 351.378906 489.996094 C 352.070312 490.664062 352.820312 491.257812 353.625 491.785156 C 354.433594 492.308594 355.28125 492.753906 356.171875 493.117188 C 357.0625 493.480469 357.980469 493.753906 358.925781 493.941406 C 359.867188 494.128906 360.820312 494.226562 361.78125 494.230469 L 385.324219 493.8125 L 346.410156 532.730469 C 345.144531 531.15625 343.921875 529.554688 342.730469 527.925781 C 341.542969 526.292969 340.394531 524.636719 339.28125 522.957031 C 338.167969 521.273438 337.09375 519.566406 336.058594 517.832031 C 335.023438 516.101562 334.027344 514.347656 333.074219 512.570312 C 332.117188 510.792969 331.203125 508.992188 330.332031 507.175781 C 329.457031 505.355469 328.625 503.515625 327.835938 501.660156 C 327.050781 499.804688 326.304688 497.929688 325.597656 496.039062 C 324.894531 494.148438 324.238281 492.242188 323.621094 490.320312 C 323.003906 488.398438 322.433594 486.464844 321.902344 484.515625 C 321.375 482.570312 320.890625 480.609375 320.453125 478.640625 C 320.015625 476.671875 319.621094 474.695312 319.273438 472.707031 C 318.925781 470.71875 318.625 468.722656 318.367188 466.722656 C 318.109375 464.722656 317.898438 462.714844 317.730469 460.707031 C 317.566406 458.695312 317.445312 456.679688 317.375 454.664062 C 317.300781 452.648438 317.273438 450.632812 317.292969 448.613281 C 317.308594 446.597656 317.375 444.578125 317.484375 442.566406 C 317.59375 440.550781 317.753906 438.539062 317.953125 436.53125 C 318.15625 434.523438 318.40625 432.523438 318.699219 430.527344 C 318.992188 428.53125 319.332031 426.542969 319.71875 424.5625 C 320.101562 422.582031 320.53125 420.609375 321.007812 418.648438 C 321.480469 416.6875 322 414.738281 322.5625 412.800781 C 323.128906 410.863281 323.734375 408.941406 324.386719 407.03125 C 325.039062 405.121094 325.734375 403.226562 326.472656 401.351562 C 327.210938 399.472656 327.988281 397.613281 328.8125 395.769531 C 329.636719 393.925781 330.5 392.105469 331.40625 390.300781 C 332.3125 388.5 333.257812 386.71875 334.246094 384.960938 C 335.234375 383.199219 336.261719 381.464844 337.328125 379.75 C 338.394531 378.039062 339.5 376.351562 340.644531 374.6875 C 341.789062 373.027344 342.96875 371.390625 344.1875 369.785156 C 345.40625 368.175781 346.660156 366.597656 347.953125 365.046875 C 349.242188 363.496094 350.566406 361.972656 351.925781 360.484375 C 353.289062 358.992188 354.679688 357.535156 356.109375 356.109375 C 357.535156 354.679688 358.992188 353.289062 360.484375 351.925781 C 361.972656 350.566406 363.496094 349.242188 365.046875 347.953125 C 366.597656 346.660156 368.175781 345.40625 369.785156 344.1875 C 371.390625 342.96875 373.027344 341.789062 374.6875 340.644531 C 376.351562 339.5 378.039062 338.394531 379.75 337.328125 C 381.464844 336.261719 383.199219 335.234375 384.960938 334.246094 C 386.71875 333.257812 388.5 332.3125 390.300781 331.40625 C 392.105469 330.5 393.925781 329.636719 395.769531 328.8125 C 397.613281 327.988281 399.472656 327.207031 401.351562 326.472656 C 403.226562 325.734375 405.121094 325.039062 407.03125 324.386719 C 408.941406 323.734375 410.863281 323.128906 412.800781 322.5625 C 414.738281 322 416.6875 321.480469 418.648438 321.007812 C 420.609375 320.53125 422.582031 320.101562 424.5625 319.71875 C 426.542969 319.332031 428.53125 318.992188 430.527344 318.699219 C 432.523438 318.40625 434.523438 318.15625 436.53125 317.953125 C 438.539062 317.753906 440.550781 317.59375 442.566406 317.484375 C 444.578125 317.375 446.597656 317.308594 448.613281 317.292969 C 450.632812 317.273438 452.648438 317.300781 454.664062 317.375 C 456.679688 317.445312 458.695312 317.566406 460.707031 317.730469 C 462.714844 317.898438 464.722656 318.109375 466.722656 318.367188 C 468.722656 318.625 470.71875 318.925781 472.707031 319.273438 C 474.695312 319.621094 476.671875 320.015625 478.640625 320.453125 C 480.609375 320.890625 482.570312 321.375 484.515625 321.902344 C 486.464844 322.433594 488.398438 323.003906 490.320312 323.621094 C 492.242188 324.238281 494.148438 324.894531 496.039062 325.597656 C 497.929688 326.304688 499.804688 327.050781 501.660156 327.835938 C 503.515625 328.625 505.355469 329.457031 507.175781 330.332031 C 508.992188 331.203125 510.792969 332.117188 512.570312 333.074219 C 514.347656 334.027344 516.101562 335.023438 517.832031 336.058594 C 519.566406 337.09375 521.273438 338.167969 522.957031 339.28125 C 524.636719 340.394531 526.292969 341.542969 527.925781 342.730469 C 529.554688 343.921875 531.15625 345.144531 532.730469 346.410156 L 493.8125 385.324219 L 494.230469 361.78125 C 494.246094 360.816406 494.167969 359.855469 493.996094 358.902344 C 493.820312 357.953125 493.558594 357.027344 493.203125 356.125 C 492.847656 355.226562 492.40625 354.367188 491.882812 353.554688 C 491.359375 352.742188 490.761719 351.988281 490.089844 351.292969 C 489.417969 350.59375 488.683594 349.972656 487.886719 349.421875 C 487.09375 348.871094 486.25 348.402344 485.363281 348.015625 C 484.476562 347.628906 483.558594 347.335938 482.613281 347.128906 C 481.667969 346.921875 480.710938 346.8125 479.746094 346.796875 C 478.777344 346.777344 477.816406 346.855469 476.863281 347.027344 C 475.914062 347.199219 474.988281 347.460938 474.085938 347.816406 C 473.183594 348.171875 472.328125 348.609375 471.515625 349.132812 C 470.699219 349.65625 469.945312 350.253906 469.25 350.925781 C 468.550781 351.597656 467.925781 352.328125 467.375 353.125 C 466.824219 353.917969 466.351562 354.757812 465.964844 355.644531 C 465.578125 356.535156 465.285156 357.449219 465.078125 358.394531 C 464.871094 359.339844 464.757812 360.296875 464.738281 361.265625 C 464.738281 361.265625 463.707031 421.25 463.707031 421.425781 C 463.710938 422.40625 463.808594 423.375 464.003906 424.335938 C 464.199219 425.296875 464.484375 426.230469 464.863281 427.132812 C 465.242188 428.039062 465.703125 428.898438 466.25 429.710938 C 466.796875 430.523438 467.417969 431.273438 468.117188 431.964844 C 468.8125 432.65625 469.566406 433.273438 470.382812 433.8125 C 471.203125 434.355469 472.0625 434.8125 472.96875 435.183594 C 473.878906 435.554688 474.8125 435.835938 475.773438 436.023438 C 476.738281 436.210938 477.707031 436.300781 478.6875 436.296875 L 538.726562 435.25 C 539.695312 435.230469 540.652344 435.121094 541.597656 434.914062 C 542.542969 434.707031 543.457031 434.410156 544.347656 434.027344 C 545.234375 433.640625 546.074219 433.167969 546.871094 432.617188 C 547.664062 432.066406 548.398438 431.441406 549.070312 430.746094 C 549.742188 430.046875 550.339844 429.292969 550.863281 428.476562 C 551.386719 427.664062 551.824219 426.804688 552.179688 425.90625 C 552.535156 425.003906 552.796875 424.078125 552.96875 423.125 C 553.140625 422.171875 553.21875 421.214844 553.203125 420.246094 C 553.1875 419.277344 553.074219 418.320312 552.867188 417.375 C 552.664062 416.429688 552.367188 415.511719 551.980469 414.625 C 551.597656 413.738281 551.128906 412.894531 550.574219 412.097656 C 550.023438 411.304688 549.398438 410.570312 548.703125 409.898438 C 548.007812 409.226562 547.253906 408.628906 546.4375 408.101562 C 545.625 407.578125 544.765625 407.140625 543.867188 406.785156 C 542.964844 406.429688 542.039062 406.167969 541.085938 405.992188 C 540.136719 405.820312 539.175781 405.742188 538.207031 405.757812 L 514.664062 406.175781 L 553.582031 367.257812 C 558.261719 373.078125 562.417969 379.253906 566.050781 385.777344 C 569.679688 392.304688 572.734375 399.089844 575.214844 406.136719 C 577.695312 413.183594 579.5625 420.386719 580.820312 427.75 C 582.078125 435.109375 582.703125 442.527344 582.703125 449.996094 Z M 582.703125 449.996094 " fill-opacity="1" fill-rule="nonzero"/></svg>