<svg xmlns="http://www.w3.org/2000/svg" xmlns:xlink="http://www.w3.org/1999/xlink" width="1200" zoomAndPan="magnify" viewBox="0 0 900 899.99999" height="1200" preserveAspectRatio="xMidYMid meet" version="1.0"><defs><clipPath id="b950b52a1a"><path d="M 226 488 L 412 488 L 412 673.582031 L 226 673.582031 Z M 226 488 " clip-rule="nonzero"/></clipPath></defs><g clip-path="url(#b950b52a1a)"><path fill="#ffffff" d="M 408.535156 488.78125 C 407.871094 488.519531 407.164062 488.367188 406.453125 488.367188 L 254.0625 488.367188 C 251.058594 488.367188 248.621094 490.808594 248.621094 493.8125 C 248.621094 496.816406 251.058594 499.253906 254.0625 499.253906 L 393.316406 499.253906 L 228.4375 664.121094 C 226.316406 666.242188 226.316406 669.695312 228.4375 671.816406 C 229.503906 672.882812 230.898438 673.417969 232.292969 673.417969 C 233.6875 673.417969 235.078125 672.882812 236.144531 671.828125 L 401.011719 506.949219 L 401.011719 646.203125 C 401.011719 649.207031 403.449219 651.644531 406.453125 651.644531 C 409.460938 651.644531 411.898438 649.207031 411.898438 646.203125 L 411.898438 493.8125 C 411.898438 493.105469 411.757812 492.394531 411.472656 491.734375 C 410.929688 490.40625 409.863281 489.335938 408.535156 488.78125 Z M 408.535156 488.78125 " fill-opacity="1" fill-rule="nonzero"/></g><path fill="#ffffff" d="M 671.550781 228.714844 C 669.429688 226.589844 665.980469 226.589844 663.855469 228.714844 L 498.980469 393.59375 L 498.980469 254.339844 C 498.980469 251.332031 496.539062 248.894531 493.535156 248.894531 C 490.53125 248.894531 488.09375 251.332031 488.09375 254.339844 L 488.09375 406.730469 C 488.09375 407.4375 488.246094 408.144531 488.507812 408.808594 C 489.0625 410.148438 490.117188 411.203125 491.457031 411.757812 C 492.121094 412.03125 492.828125 412.171875 493.535156 412.171875 L 645.929688 412.171875 C 648.933594 412.171875 651.371094 409.734375 651.371094 406.730469 C 651.371094 403.726562 648.933594 401.289062 645.929688 401.289062 L 506.675781 401.289062 L 671.542969 236.421875 C 673.675781 234.289062 673.675781 230.847656 671.550781 228.714844 Z M 671.550781 228.714844 " fill-opacity="1" fill-rule="nonzero"/></svg>